<svg width="30" height="29" viewBox="0 0 30 29" fill="none" xmlns="http://www.w3.org/2000/svg">
<g id="clock-circle-svgrepo-com (2) 1">
<path id="Vector" d="M27.432 14.5C27.432 21.1734 21.9116 26.5834 15.102 26.5834C8.29239 26.5834 2.77209 21.1734 2.77209 14.5C2.77209 7.82658 8.29239 2.41669 15.102 2.41669C21.9116 2.41669 27.432 7.82658 27.432 14.5Z" fill="#40CBD8"/>
<path id="Vector_2" fill-rule="evenodd" clip-rule="evenodd" d="M15.1021 8.76044C15.6128 8.76044 16.0269 9.16618 16.0269 9.66669V14.1246L18.8385 16.8801C19.1996 17.234 19.1996 17.8077 18.8385 18.1616C18.4773 18.5156 17.8919 18.5156 17.5307 18.1616L14.4483 15.1408C14.2748 14.9709 14.1774 14.7404 14.1774 14.5V9.66669C14.1774 9.16618 14.5914 8.76044 15.1021 8.76044Z" fill="#183A41"/>
</g>
</svg>
